<svg fill="none" height="24" viewBox="0 0 24 24" width="24" xmlns="http://www.w3.org/2000/svg"><g clip-rule="evenodd" fill="#47495f" fill-rule="evenodd"><path d="m7.5 11c-.55228 0-1 .4477-1 1s.44772 1 1 1 1-.4477 1-1-.44772-1-1-1zm-2 1c0-1.1046.89543-2 2-2s2 .8954 2 2-.89543 2-2 2-2-.8954-2-2z"/><path d="m16.5 11c-.5523 0-1 .4477-1 1s.4477 1 1 1 1-.4477 1-1-.4477-1-1-1zm-2 1c0-1.1046.8954-2 2-2s2 .8954 2 2-.8954 2-2 2-2-.8954-2-2z"/><path d="m10 15.5c.2761 0 .5.2239.5.5l.0003.0027s.0011.0046.0031.0095c.004.0098.0137.0283.0355.0541.0456.0539.1312.1239.2705.1936.2789.1394.6991.2401 1.1906.2401s.9117-.1007 1.1906-.2401c.1393-.0697.2249-.1397.2705-.1936.0218-.0258.0315-.0443.0355-.0541.002-.0049.0031-.0095.0031-.0095l.0003-.0027c0-.2761.2239-.5.5-.5s.5.2239.5.5c0 .5676-.4471.9468-.8622 1.1543-.445.2225-1.0247.3457-1.6378.3457s-1.1928-.1232-1.6378-.3457c-.4151-.2075-.8622-.5867-.8622-1.1543 0-.2761.22386-.5.5-.5z"/><path d="m16 5.5v2h-8v-2c0-.27614-.22386-.5-.5-.5s-.5.22386-.5.5v2h-1c-1.38071 0-2.5 1.11929-2.5 2.5v7c0 1.3807 1.11929 2.5 2.5 2.5h12c1.3807 0 2.5-1.1193 2.5-2.5v-7c0-1.38071-1.1193-2.5-2.5-2.5h-1v-2c0-.27614-.2239-.5-.5-.5s-.5.22386-.5.5zm-10 3c-.82843 0-1.5.67157-1.5 1.5v7c0 .8284.67157 1.5 1.5 1.5h12c.8284 0 1.5-.6716 1.5-1.5v-7c0-.82843-.6716-1.5-1.5-1.5z"/></g></svg>