<svg fill="none" height="48" viewBox="0 0 48 48" width="48" xmlns="http://www.w3.org/2000/svg"><g fill="#000"><path d="m40.5 23.5h-.28c-1.15-5.14-5.74-9-11.22-9h-3.5v-1.28c1.74-.62 3-2.27 3-4.21999 0-2.48-2.02-4.5-4.5-4.5s-4.5 2.02-4.5 4.5c0 1.94999 1.26 3.59999 3 4.21999v1.28h-3.5c-5.48 0-10.07 3.86-11.22 9h-.28c-1.65 0-3 1.35-3 3v3c0 1.65 1.35 3 3 3h.55c1.18 3.68 4.16 6.54 7.9 7.58-.28.59-.45 1.23-.45 1.92 0 .83.67 1.5 1.5 1.5h14c.83 0 1.5-.67 1.5-1.5 0-.69-.17-1.34-.45-1.92 3.74-1.03 6.72-3.9 7.9-7.58h.55c1.65 0 3-1.35 3-3v-3c0-1.65-1.35-3-3-3zm-16.5-15.99999c.83 0 1.5.67 1.5 1.5s-.67 1.49999-1.5 1.49999-1.5-.66999-1.5-1.49999.67-1.5 1.5-1.5zm5 29.99999h-10c-4.69 0-8.5-3.81-8.5-8.5v-3c0-4.69 3.81-8.5 8.5-8.5h10c4.69 0 8.5 3.81 8.5 8.5v3c0 4.69-3.81 8.5-8.5 8.5z"/><path d="m18.5 21.5c-1.65 0-3 1.35-3 3v3c0 1.65 1.35 3 3 3s3-1.35 3-3v-3c0-1.65-1.35-3-3-3z"/><path d="m29.5 21.5c-1.65 0-3 1.35-3 3v3c0 1.65 1.35 3 3 3s3-1.35 3-3v-3c0-1.65-1.35-3-3-3z"/><path d="m13.53 7.42001 3 1c.16.05.32.08.47.08.63 0 1.21-.4 1.42-1.03.26-.79-.16-1.64-.95-1.9l-3-1c-.78-.26-1.63.16-1.9.95s.16 1.64.95 1.9z"/><path d="m14 13.5c.16 0 .32-.02.47-.08l3-1c.79-.26 1.21-1.11.95-1.9-.26-.78999-1.11-1.20999-1.9-.94999l-3 .99999c-.79.26-1.21 1.11-.95 1.9.21.63.79 1.03 1.42 1.03z"/><path d="m31 8.50001c.16 0 .32-.02.47-.08l3-1c.79-.26 1.21-1.11.95-1.9s-1.11-1.21-1.9-.95l-3 1c-.79.26-1.21 1.11-.95 1.9.21.63.79 1.03 1.42 1.03z"/><path d="m30.53 12.42 3 1c.16.05.32.08.47.08.63 0 1.21-.4 1.42-1.03.26-.79-.16-1.64-.95-1.9l-3-.99999c-.78-.26-1.64.16-1.9.94999-.26.79.16 1.64.95 1.9z"/></g></svg>