<svg fill="none" height="24" viewBox="0 0 24 24" width="24" xmlns="http://www.w3.org/2000/svg"><g fill="#292d32"><path d="m16.6693 20.8299c-.02 0-.03 0-.04 0h-11.09c-2.94-.21-4.26-2.48-4.26-4.49 0-1.8 1.05-3.8 3.33-4.35-1-3.83995.9-6.52995 3.14-7.79995 2.6-1.48 6.47-1.49 8.82 1.36.02.03.04.06.06.09.7.89 1.19 1.96 1.47 3.2 1.23.27 2.29.93 3.12 1.90995 1.89 2.23 2.25 6.11-.45 8.49-1.12 1.03-2.57 1.59-4.1 1.59zm-5.18-16.12995c-1.06 0-2.11.29-2.99.79-2.42 1.38-3.24 3.94-2.2 6.85995.08.23.05.49-.09.68s-.37.32-.61.32c-1.94.14-2.81 1.6-2.81 2.99s.87 2.85 2.81 3h11.04c1.16.01 2.28-.42 3.13-1.2l.01-.01c2.03-1.78 1.73-4.71.3-6.4-.7-.83-1.63-1.34-2.7-1.48-.33-.04-.59-.28995-.64-.61995-.21-1.24-.65-2.28-1.31-3.1-.02-.02-.03-.05-.05-.07-1.06-1.24-2.48-1.76-3.89-1.76z"/><path d="m7.25984 13.7601c-.11 0-.23-.03-.33-.08-.42-.21-.88-.32-1.35-.33-.41-.01-.74-.35-.74-.76.01-.41.4-.75.76-.74.69.01 1.38.18 1.99.49.37.18.52.64.34 1.01-.13.26-.39.41-.67.41z"/><path d="m15.85 10.67c-.28 0-.54-.15-.67-.42-.19-.37002-.03-.82002.34-1.01002.62-.31 1.31-.48 1.99-.49.4-.01.76.32.76.74.01.41-.32.76002-.74.76002-.46.01-.93.12-1.35.33-.11.06-.22.09-.33.09z"/><path d="m20.65 11.98c-.21 0-.43-.09-.58-.27-.69-.83-1.63-1.34-2.7-1.48-.33-.04-.59-.29-.64-.62-.21-1.24-.65-2.28-1.31-3.1-.11-.13-.17-.3-.17-.47 0-.2.08-.4.22-.54.8-.81 1.86-1.25 3-1.25 2.34 0 4.25 1.91 4.25 4.25 0 1.3-.58 2.51-1.6 3.32-.14.11-.3.16-.47.16zm-2.54-3.14c.96.21 1.83.66 2.55 1.32.36-.47.56-1.05.56-1.66 0-1.52-1.23-2.75-2.75-2.75-.52 0-1.02.14-1.45.42.51.77.87 1.67 1.09 2.67z"/></g></svg>